<svg width="210" height="276" viewBox="0 0 210 276" fill="none" xmlns="http://www.w3.org/2000/svg">
<path d="M139.6 2.5C150.583 2.5 160.512 4.02527 169.358 7.11133H169.357C178.42 10.203 185.643 14.8782 190.915 21.1943L191.409 21.7812C196.436 27.8986 198.9 35.4844 198.9 44.4004C198.9 53.3151 196.824 60.9344 192.547 67.1357C188.542 73.2324 183.163 77.8635 176.449 81.0107L176.437 81.0166L176.423 81.0225C169.942 83.9492 162.859 85.4004 155.2 85.4004C146.052 85.4004 137.135 83.1094 128.472 78.5713C120.256 74.268 113.524 68.0364 108.28 59.9219C102.215 63.2322 96.3786 68.5211 90.7988 75.8994L90.7998 75.9004C84.9454 83.7063 80.2385 92.9086 76.6973 103.532C73.1665 114.124 71.4004 125.111 71.4004 136.5C71.4004 153.093 74.7691 164.928 81.124 172.404C87.5933 179.817 95.0609 183.4 103.6 183.4C109.611 183.4 115.785 181.712 122.143 178.244L122.164 178.232C128.372 174.946 134.005 170.252 139.059 164.112C136.823 159.326 134.418 154.537 131.839 149.748L131.817 149.708L131.798 149.668C129.193 144.259 126.689 138.949 124.284 133.738L123.571 132.193L124.981 131.242C133.695 125.366 143.111 120.304 153.226 116.056L153.238 116.051C163.65 111.764 173.908 109.6 184 109.6C192.832 109.6 199.421 111.953 202.774 117.407C206.038 122.411 207.6 128.618 207.6 135.9C207.6 140.534 206.658 146.613 204.844 154.072C203.243 161.471 201.345 169.662 199.149 178.643C197.158 187.406 195.264 196.471 193.471 205.835C191.887 215.139 191.1 223.927 191.1 232.2C191.1 237.633 191.779 242.643 193.12 247.24C194.46 251.833 196.342 255.457 198.711 258.19L200.15 259.851L198.362 261.128C192.618 265.231 186.55 268.321 180.16 270.388C173.999 272.644 168.174 273.8 162.7 273.8C149.057 273.8 139.225 269.321 133.953 259.875C129.235 251.421 126.804 240.521 126.526 227.297C122.196 228.403 117.661 229.295 112.922 229.974C107.205 230.993 101.197 231.5 94.9004 231.5C77.4215 231.5 61.6056 227.941 47.4951 220.783L47.4639 220.768C33.4823 213.366 22.4098 202.065 14.2402 186.951C6.03749 171.776 2.00005 152.723 2 129.9C2 118.667 3.94112 107.156 7.7998 95.377C11.6597 83.5944 17.2421 72.2321 24.5361 61.291L24.541 61.2832C31.8248 50.4561 40.7252 40.7805 51.2324 32.2568L52.2539 31.4355C63.095 22.7633 75.543 15.9185 89.5801 10.8916L90.9443 10.4102C105.586 5.12645 121.812 2.50004 139.6 2.5Z" stroke="black" stroke-width="4"/>
</svg>
