<svg width="183" height="225" viewBox="0 0 183 225" fill="none" xmlns="http://www.w3.org/2000/svg">
<path d="M106.6 2C119.651 2 131.169 4.44799 141.095 9.41113C150.972 14.3499 158.66 20.9754 164.077 29.3096H164.076C169.58 37.469 173.665 46.1488 176.322 55.3447H176.321C178.981 64.3549 180.3 74.3455 180.3 85.2998C180.3 96.2471 179.084 107.878 176.662 120.187C174.23 132.553 170.178 144.903 164.518 157.234C158.848 169.587 151.952 180.545 143.823 190.097C135.629 199.725 125.303 207.586 112.883 213.694L112.87 213.7L112.859 213.706C100.369 219.644 86.6727 222.6 71.8 222.6C49.8614 222.6 32.6451 214.774 20.4202 199.026L20.4124 199.017C8.28666 183.192 2.30008 163.033 2.30005 138.7C2.30005 114.265 6.54176 91.8979 15.0559 71.626L15.0598 71.6162C23.7777 51.1393 36.1703 34.4627 52.2502 21.6387L53.0178 21.0303C69.1511 8.36788 87.0298 2.00004 106.6 2ZM102.1 26.4004C92.6494 26.4005 84.0933 31.9834 76.4963 44.0576L76.4973 44.0586C62.1711 67.0197 54.8997 98.9997 54.8997 140.2C54.8997 151.47 55.2245 160.552 55.8665 167.465C56.5161 174.461 57.473 178.987 58.6018 181.332L58.6321 181.394L58.6575 181.457C59.6631 183.971 60.9697 186.578 62.5852 189.277L63.2961 190.44L63.2991 190.445C66.4119 195.46 72.0228 198.2 80.8 198.2C89.5125 198.2 96.856 194.443 102.923 186.67L102.933 186.657L102.942 186.646C109.319 178.723 114.215 168.303 117.564 155.301L117.565 155.294L118.189 152.87C124.529 127.804 127.7 102.082 127.7 75.7002C127.7 58.7142 125.404 46.2869 121.038 38.1729C118.872 34.1458 116.22 31.2265 113.121 29.3066C110.028 27.3904 106.379 26.4004 102.1 26.4004Z" stroke="black" stroke-width="4"/>
</svg>
