<svg width="233" height="252" viewBox="0 0 233 252" fill="none" xmlns="http://www.w3.org/2000/svg">
<path d="M96.3998 2C97.0018 2 97.6054 2.17837 98.1254 2.56836C98.6205 2.93972 98.9308 3.42027 99.1273 3.8623C99.4996 4.69988 99.6 5.71406 99.6 6.7002C99.5999 9.11683 98.5986 11.1334 96.4926 12.3369L96.4408 12.3662L96.3871 12.3926C77.0218 21.9775 61.5081 37.7413 49.8754 59.8184L49.8763 59.8193C38.4209 81.9402 32.6996 105.226 32.6996 129.7C32.6996 156.126 39.6935 179.008 53.6254 198.435C60.4082 207.732 69.6352 215.227 81.3705 220.899C93.05 226.544 106.742 229.4 122.5 229.4C138.202 229.4 152.349 224.084 165.008 213.373C177.741 202.599 187.145 189.185 193.229 173.093C199.34 156.727 202.4 139.467 202.4 121.3C202.4 95.4502 195.894 73.5742 182.975 55.5654L182.971 55.5596L182.966 55.5537C170.38 37.7391 152.22 28.7998 128.2 28.7998C114.448 28.7999 103.098 33.0217 94.0052 41.3965C84.8712 49.8094 77.8675 62.5508 73.1283 79.8291C72.8646 80.9531 72.3679 82.0193 71.4877 82.8115C70.5531 83.6526 69.3948 84 68.1996 84C67.5835 83.9999 66.9499 83.8547 66.3695 83.5C65.7937 83.148 65.3803 82.6574 65.0941 82.1328C64.5546 81.1436 64.3998 79.9165 64.3998 78.7002C64.3998 69.5404 68.3298 59.4482 75.8402 48.4834C83.4275 37.2049 94.0554 27.4163 107.656 19.0938C121.341 10.5191 135.699 6.20027 150.7 6.2002C176.751 6.2002 196.692 14.4661 210.16 31.248H210.159C223.499 47.6717 230.1 68.5421 230.1 93.7002C230.1 111.343 226.854 129.263 220.39 147.45L220.391 147.451C214.128 165.634 205.438 182.411 194.321 197.772L194.313 197.783C183.139 213.021 168.922 225.504 151.691 235.235L151.692 235.236C134.592 245.007 116.25 249.9 96.6996 249.9C67.2191 249.9 44.0214 240.217 27.3783 220.697C10.8321 201.291 2.60005 177.314 2.59998 148.9C2.59998 120.312 10.5121 92.6627 26.2777 65.9824L26.2806 65.9785C42.2837 39.0367 65.1691 17.7874 94.8724 2.22852L95.308 2H96.3998Z" stroke="black" stroke-width="4"/>
</svg>
