<svg width="175" height="256" viewBox="0 0 175 256" fill="none" xmlns="http://www.w3.org/2000/svg">
<path d="M124.944 2.29999L145.644 2.59979L145.819 2.60272L145.991 2.63593C155.187 4.39683 162.088 6.96912 166.345 10.5588L166.749 10.9094L166.829 10.9816L166.901 11.0617C170.877 15.4786 172.73 20.8961 172.514 27.1691V27.1867L172.513 27.2053C172.296 31.3182 171.109 35.5748 169.021 39.9601L169.011 39.9816C163.543 51.1193 157.245 60.6785 150.104 68.6359L150.048 68.6974L149.987 68.7551C142.707 75.6191 134.838 79.2004 126.415 79.2004C124.789 79.2004 123.248 78.8594 122.002 77.9611C119.971 76.6732 118.715 74.8012 118.715 72.3996C118.715 70.9626 119.208 69.4417 119.977 67.9055C120.755 66.3477 121.888 64.633 123.336 62.7717L123.343 62.7639L123.35 62.7551C129.496 55.0223 133.327 48.6388 135.018 43.5676L135.062 43.4328L135.126 43.3058C135.182 43.1942 135.295 42.8713 135.383 42.2111C135.467 41.5783 135.515 40.7476 135.515 39.7004C135.515 38.1099 135.248 36.939 134.826 36.0949L134.81 36.0617L134.794 36.0275C134.069 34.4331 132.664 33.1518 130.258 32.2892C125.126 30.5826 118.762 29.7004 111.115 29.7004C98.2561 29.7004 87.0408 32.7113 77.4023 38.6779C63.6744 47.7715 53.1061 62.4466 45.8115 82.9318C44.6282 86.4819 43.5424 90.1327 42.5547 93.884L42.5557 93.8849C36.2423 119.138 38.0987 139.084 47.6514 154.044C48.4261 155.014 49.1109 155.896 49.7051 156.688C55.687 164.539 64.4969 168.928 76.4189 169.702C83.8752 170.074 91.1214 167.668 98.208 162.305C102.252 159.223 106.236 155.247 110.153 150.351C117.178 141.57 122.362 131.409 125.693 119.846L125.705 119.807L125.718 119.768C127.218 115.268 129.604 111.55 132.905 108.689C138.967 103.262 145.645 100.157 152.916 99.5099L155.916 99.2101L156.342 99.1672L156.747 99.3029L158.548 99.9025L158.724 99.9611L158.887 100.052C161.211 101.343 162.615 103.356 162.615 106C162.615 107.175 162.336 108.999 161.862 111.329C161.378 113.712 160.657 116.78 159.703 120.52C157.806 127.959 154.969 138.133 151.2 151.033C151.158 151.591 151.011 152.122 150.784 152.62C140.96 184.66 129.475 208.424 116.227 223.71C105.618 236.151 92.9332 244.759 78.1895 249.483C77.169 249.888 76.216 250.208 75.3359 250.43C67.7418 252.482 59.8492 253.404 51.665 253.199V253.198C40.0674 252.993 29.1538 251.06 18.9375 247.382V247.381C13.1814 245.395 9.0825 243.608 6.9873 241.979L6.97949 241.973C5.11337 240.507 4.12748 238.522 4.34863 236.163C4.55163 233.998 5.74897 231.787 7.52832 229.58C12.8359 222.58 20.16 218.344 29.3525 216.849C30.0512 216.633 30.7649 216.514 31.4893 216.502L34.416 216.21L34.8887 216.162L35.333 216.333L39.2334 217.833L39.2832 217.853L39.333 217.875C50.6657 222.955 62.7858 225.5 75.7148 225.5C80.1169 225.5 82.8274 224.724 84.2998 223.586C84.4951 223.391 84.7621 223.124 85.1006 222.785L85.1318 222.755L85.1631 222.726C92.0235 216.437 98.8887 204.981 105.658 188.057L105.663 188.044L105.669 188.03C106.946 184.966 107.94 182.466 108.66 180.524C95.5721 188.994 81.8879 194.327 67.6133 196.478L67.5879 196.482L67.5635 196.485C61.0263 197.302 54.108 197.302 46.8154 196.5H45.4893L45.2695 196.449C38.0691 194.804 31.7381 192.118 26.3096 188.366C18.1057 183.099 11.8778 175.04 7.56055 164.35L7.2002 163.439C-0.250949 144.259 0.35193 121.459 8.70898 95.1935L8.71484 95.176C18.2408 66.1927 34.8879 43.1342 58.6484 26.0754L58.6553 26.0705C78.3557 12.0568 100.406 4.1328 124.766 2.30585L124.854 2.29901L124.944 2.29999Z" stroke="black" stroke-width="4"/>
</svg>
