<svg width="196" height="227" viewBox="0 0 196 227" fill="none" xmlns="http://www.w3.org/2000/svg">
<path d="M155.54 2.49998L155.58 2.50194C160.401 2.69478 164.475 3.43246 167.71 4.80467L168.346 5.08788L168.392 5.10936L168.438 5.13377C175.424 8.8451 179.842 15.0754 181.752 23.5605H181.751C182.208 25.4226 182.4 28.3232 182.4 32.0996C182.4 40.1022 181.426 46.1868 179.127 49.9072L179.128 49.9082C177.496 52.7043 174.086 55.8114 169.256 59.2324L169.227 59.2519L169.199 59.2715C162.01 63.9953 155.228 66.5 148.9 66.5C145.975 66.5 143.225 65.798 141.839 63.5166C141.126 62.5492 140.9 61.3651 140.9 60.2246C140.9 59.0358 141.143 57.6854 141.558 56.2168C142.48 52.1362 142.588 47.5335 141.834 42.3808C140.491 36.8807 138.329 33.9245 135.749 32.7099C132.882 31.3609 129.28 31.1163 124.785 32.2402L124.655 32.2724L124.521 32.2881C123.294 32.4244 121.77 33.1371 119.938 34.7861L119.925 34.7978L119.914 34.8086C114.023 39.9393 108.066 48.7456 102.111 61.4492L102.101 61.4687C93.9904 78.2838 85.8299 103.128 77.6412 136.082C72.5846 156.503 67.2054 171.821 61.4547 181.9H62.8004C73.1409 181.9 86.8616 183.87 103.907 187.752L107.361 188.554L107.371 188.556L107.38 188.559C125.129 192.946 138.358 195.304 147.151 195.7H149.839L150.464 194.607L150.534 194.484L150.622 194.372C151.828 192.822 152.828 190.769 153.577 188.15L153.594 188.088L153.617 188.027C154.744 184.87 156.844 181.929 159.786 179.186C167.259 171.712 175.508 167.631 184.505 167.202L184.552 167.2H184.6C186.705 167.2 188.527 167.37 189.879 167.844L190.143 167.943L190.292 168.003L190.429 168.085C191.637 168.809 192.663 169.748 193.238 170.979C193.815 172.216 193.831 173.527 193.44 174.793C192.557 179.307 190.229 184.507 186.599 190.354L186.587 190.376L186.573 190.396C182.65 196.383 177.607 201.73 171.469 206.444C162.296 213.987 152.756 219.135 142.849 221.822C136.63 223.685 129.539 224.6 121.6 224.6H121.562C110.744 224.395 96.0841 221.955 77.649 217.348V217.349C61.2495 213.549 49.6981 211.486 42.8864 211.097H42.8766L42.8668 211.096L39.2086 210.852L36.8375 212.986L36.8053 213.016L36.7711 213.044C33.2571 215.938 29.3406 218.512 25.028 220.771L24.9948 220.789C20.4177 223.078 16.0473 224.38 11.9049 224.598L11.8522 224.6H11.8004C10.6479 224.6 9.62751 224.548 8.76038 224.433C7.92106 224.321 7.09404 224.133 6.40588 223.789C5.68078 223.426 4.87455 222.703 4.08557 221.914L3.89124 221.72L3.75647 221.48C2.34146 218.965 3.00896 216.04 4.57874 213.226C6.17521 210.363 8.97137 207.099 12.8248 203.448L12.8268 203.446C16.2864 200.179 19.2701 196.427 21.778 192.183L21.7936 192.156L21.8102 192.131C27.8364 182.605 33.1734 168.255 37.7535 148.938L37.7565 148.929L37.7584 148.919C49.1627 102.902 61.5219 69.9224 74.9225 50.2099C76.9591 46.9546 79.1994 43.8977 81.6442 41.041C85.3667 36.0917 90.9721 30.4047 98.3922 23.9873L98.4293 23.9541L98.4694 23.9238C113.31 12.3358 129.131 5.37612 145.918 3.12108V3.1201C148.828 2.70441 152.024 2.5 155.5 2.49998H155.54Z" stroke="black" stroke-width="4"/>
</svg>
