<svg width="225" height="227" viewBox="0 0 225 227" fill="none" xmlns="http://www.w3.org/2000/svg">
<path d="M156.141 2.61719C162.299 1.796 169.126 1.79845 176.605 2.59961H177.9L178.092 2.6377C191.79 5.33575 202.55 12.3244 210.255 23.5693L210.274 23.5977L210.293 23.626C216.089 32.7338 219.858 44.2297 221.686 58.0264C222.512 64.0169 222.605 72.1678 222.002 82.417L221.994 82.5557L221.967 82.6924C221.777 83.6393 221.705 84.2917 221.705 84.7002V84.8066L221.694 84.9131C220.485 96.1983 218.465 106.128 215.617 114.685C207.306 141.846 191.704 165.443 168.872 185.46C167.623 186.704 166.273 187.846 164.824 188.886C136.553 212.294 106.834 224.1 75.7051 224.1C60.7601 224.1 47.4772 220.41 35.9238 212.982V212.981C18.9785 202.231 8.42388 185.206 4.1416 162.182L3.95508 161.198C0.125241 140.545 1.92653 119.614 9.31738 98.4404C12.9803 87.2613 18.756 75.4251 26.6123 62.9355L26.6309 62.9053L26.6514 62.875C40.41 42.6418 58.1085 25.5566 79.7217 11.6191L79.7422 11.6055L79.7637 11.5928C87.9477 6.60251 94.3049 3.52926 98.6846 2.64551C100.364 2.22958 101.912 2 103.306 2C105.024 2.00005 106.617 2.30056 107.968 3.0332L108.234 3.18457L108.266 3.2041C110.223 4.42759 111.605 6.17954 111.605 8.5C111.605 10.4296 110.796 12.5024 109.521 14.6289L109.501 14.6602C107.246 18.268 102.813 21.9672 96.5508 25.8057L96.5322 25.8164L96.5127 25.8271C91.8217 28.5636 87.1197 31.7941 82.4062 35.5215C75.2513 42.0823 70.0404 47.3001 66.7295 51.1953C54.9141 65.7772 46.9668 81.4035 42.8467 98.0801L42.8447 98.0889C36.5351 123.13 37.8471 145.35 46.6191 164.857C51.6598 175.714 58.7843 183.778 67.9736 189.149C68.7474 189.539 69.4526 189.939 70.083 190.351C81.8932 196.137 93.9353 197.949 106.267 195.829L106.285 195.825L106.305 195.823C124.15 193.108 140.349 183.6 154.904 167.078L154.924 167.057C168.288 152.317 177.333 134.924 182.059 114.842C188.394 87.1163 186.728 64.9758 177.454 48.166L177.435 48.1309L177.416 48.0947C175.712 44.6867 173.647 41.7792 171.229 39.3525C167.457 35.9672 163.018 33.316 157.89 31.4062C150.733 29.4818 144.924 29.053 140.372 29.9463C137.293 30.8238 133.423 33.4153 128.741 38.0928C121.748 45.6798 115.165 56.2621 109.029 69.9199L109.025 69.9287L109.021 69.9385C106.571 75.2474 103.937 79.3151 101.062 81.9697L101.031 81.998L100.999 82.0254C94.1389 87.8461 86.9968 90.9003 79.6055 90.9004C77.7125 90.9004 75.9031 90.606 74.5801 89.6523C72.3984 88.2598 71.3057 86.1133 71.3057 83.5V83.2754L71.3555 83.0566C72.4284 78.3359 76.2711 70.2067 82.6328 58.8711C82.8271 58.4826 83.0225 58.0946 83.2168 57.7061L83.2539 57.6299L83.2979 57.5586C90.5614 45.6544 97.9737 36.1913 105.552 29.2275C120.987 14.4116 137.838 5.49593 156.095 2.62402L156.117 2.62109L156.141 2.61719Z" stroke="black" stroke-width="4"/>
</svg>
